<svg width="50" height="49" viewBox="0 0 50 49" fill="none" xmlns="http://www.w3.org/2000/svg">
<rect x="1.45264" width="48" height="48" rx="24" transform="rotate(1.07054 1.45264 0)" fill="#AEC6FF" fill-opacity="0.2"/>
<path d="M36.3209 26.849L34.8015 24.2108C34.4652 23.6353 34.1804 22.5333 34.1928 21.8672L34.2413 19.2721C34.3355 14.2347 30.3182 10.0644 25.2946 9.97054C20.2569 9.89028 16.0868 13.8937 15.9927 18.9311L15.9445 21.5123C15.932 22.1784 15.6062 23.269 15.2625 23.8318L13.6457 26.4114C13.03 27.4133 12.8697 28.5625 13.2257 29.5687C13.5815 30.5887 14.4129 31.4094 15.5164 31.791C17.0058 32.3185 18.5117 32.7076 20.0471 33.0001C20.1993 33.0307 20.3517 33.0474 20.5038 33.078C20.6976 33.1094 20.9052 33.141 21.1129 33.1727C21.4726 33.2349 21.8327 33.2833 22.2068 33.3181C23.0795 33.4177 23.9669 33.4759 24.855 33.4925C25.7293 33.5088 26.6043 33.4835 27.4663 33.4164C27.786 33.3946 28.1057 33.3728 28.4118 33.3368C28.6621 33.3138 28.9124 33.2907 29.163 33.2537C29.3159 33.2427 29.469 33.2178 29.6222 33.1929C31.1811 32.9721 32.7288 32.6124 34.2369 32.1408C35.3122 31.7999 36.146 31.0104 36.5537 29.9907C36.9617 28.9572 36.872 27.8172 36.3209 26.849ZM26.1015 21.0219C26.0906 21.6047 25.6099 22.0678 25.0271 22.0569C24.4442 22.046 23.9812 21.5653 23.9921 20.9825L24.0725 16.6805C24.0834 16.0977 24.564 15.6347 25.1469 15.6456C25.7297 15.6564 26.1927 16.1371 26.1818 16.7199L26.1015 21.0219Z" fill="#6B8FE0"/>
<path d="M30.2761 35.1642C29.4202 37.3969 27.239 38.9652 24.7197 38.9181C23.1887 38.8895 21.6887 38.2412 20.6435 37.1166C20.0342 36.5237 19.5836 35.7398 19.3271 34.9402C19.5784 34.9837 19.8299 35.0077 20.1005 35.0516C20.5451 35.118 21.0092 35.1849 21.4736 35.2323C22.5764 35.3498 23.6993 35.429 24.8233 35.45C25.9279 35.4706 27.0336 35.4331 28.1207 35.3565C28.5284 35.3254 28.9357 35.3136 29.3244 35.2627C29.6351 35.2297 29.9459 35.1968 30.2761 35.1642Z" fill="#6B8FE0"/>
</svg>
