<svg width="350" height="118" viewBox="0 0 350 118" fill="none" xmlns="http://www.w3.org/2000/svg">
<rect width="350" height="118" fill="white"/>
<g clip-path="url(#clip0_1021_27854)">
<rect width="350" height="118" fill="#F1F7F7" fill-opacity="0.5"/>
<path fill-rule="evenodd" clip-rule="evenodd" d="M283.032 -30.5055C263.112 -26.5134 243.697 -25.2894 225.107 -17.0935C201.549 -6.70804 165.71 -2.26374 161.389 23.1222C156.866 49.7026 192.968 64.4512 207.347 87.2568C216.906 102.416 219.7 120.244 231.261 133.936C246.092 151.498 260.119 175.105 283.032 176.886C305.997 178.671 325.135 159.17 340.997 142.463C354.746 127.982 357.388 107.655 365.91 89.5944C376.172 67.8439 396.906 49.9849 395.969 25.9518C394.924 -0.879891 384.707 -32.2622 360.695 -44.2661C336.588 -56.3173 309.457 -35.8012 283.032 -30.5055Z" fill="#EFF5F5" fill-opacity="0.7"/>
<path fill-rule="evenodd" clip-rule="evenodd" d="M328.552 -32.5055C308.546 -28.5134 289.049 -27.2894 270.379 -19.0935C246.722 -8.70804 210.73 -4.26374 206.391 21.1222C201.848 47.7026 238.104 62.4512 252.545 85.2568C262.144 100.416 264.95 118.244 276.56 131.936C291.454 149.498 305.541 173.105 328.552 174.886C351.614 176.671 370.834 157.17 386.763 140.463C400.571 125.982 403.224 105.655 411.782 87.5944C422.088 65.8439 442.91 47.9849 441.969 23.9518C440.919 -2.87989 430.659 -34.2622 406.544 -46.2661C382.335 -58.3173 355.089 -37.8012 328.552 -32.5055Z" fill="#ECF2F2"/>
</g>
<defs>
<clipPath id="clip0_1021_27854">
<rect width="350" height="118" fill="white"/>
</clipPath>
</defs>
</svg>
